<svg width="28" height="29" viewBox="0 0 28 29" fill="none" xmlns="http://www.w3.org/2000/svg">
<path d="M13.9995 3.29395C20.2129 3.29395 25.2495 8.32944 25.2495 14.5439C25.2495 20.1577 21.1354 24.8118 15.7579 25.6567V17.7952H18.3791L18.8775 14.5439L15.7579 14.5428V12.3806C15.7748 11.5098 16.2203 10.6762 17.5916 10.6762H19.0091V7.90645C19.0091 7.90645 17.7221 7.68595 16.4914 7.68595C13.9613 7.68595 12.2951 9.1957 12.2434 11.9317L12.2411 12.0633V14.5417H9.38589V17.7929H12.2434V25.6544C6.86364 24.8118 2.74951 20.1577 2.74951 14.5439C2.74951 8.33057 7.78614 3.29395 13.9995 3.29395Z" fill="white"/>
</svg>
