<svg width="27" height="27" viewBox="0 0 27 27" fill="none" xmlns="http://www.w3.org/2000/svg">
<path d="M15.4071 2.78125C16.6728 2.78462 17.3151 2.79138 17.8698 2.80713L18.088 2.815C18.34 2.824 18.5886 2.83525 18.889 2.84875C20.086 2.905 20.9028 3.094 21.6194 3.37188C22.3619 3.65763 22.9874 4.04462 23.6129 4.669C24.1852 5.2312 24.6278 5.91153 24.91 6.6625C25.1879 7.37912 25.3769 8.19587 25.4331 9.394C25.4466 9.69325 25.4579 9.94187 25.4669 10.195L25.4736 10.4132C25.4905 10.9667 25.4973 11.6091 25.4995 12.8747L25.5006 13.714V15.1877C25.5034 16.0083 25.4948 16.8289 25.4748 17.6492L25.468 17.8675C25.459 18.1206 25.4478 18.3692 25.4343 18.6685C25.378 19.8666 25.1868 20.6822 24.91 21.4C24.6278 22.151 24.1852 22.8313 23.6129 23.3935C23.0507 23.9658 22.3704 24.4085 21.6194 24.6906C20.9028 24.9685 20.086 25.1575 18.889 25.2137L18.088 25.2475L17.8698 25.2542C17.3151 25.27 16.6728 25.2779 15.4071 25.2801L14.5679 25.2812H13.0953C12.2743 25.2841 11.4534 25.2755 10.6326 25.2554L10.4144 25.2486C10.1473 25.2385 9.88032 25.2269 9.61339 25.2137C8.41639 25.1575 7.59964 24.9685 6.88189 24.6906C6.13132 24.4083 5.45139 23.9656 4.88951 23.3935C4.31683 22.8314 3.87376 22.1511 3.59127 21.4C3.31339 20.6834 3.12439 19.8666 3.06814 18.6685L3.03439 17.8675L3.02877 17.6492C3.00803 16.8289 2.99865 16.0083 3.00064 15.1877V12.8747C2.99753 12.0542 3.00578 11.2336 3.02539 10.4132L3.03326 10.195C3.04226 9.94187 3.05351 9.69325 3.06701 9.394C3.12326 8.19587 3.31226 7.38025 3.59014 6.6625C3.8733 5.91122 4.31714 5.23087 4.89064 4.669C5.45219 4.09699 6.13173 3.65433 6.88189 3.37188C7.59964 3.094 8.41526 2.905 9.61339 2.84875C9.91264 2.83525 10.1624 2.824 10.4144 2.815L10.6326 2.80825C11.453 2.78826 12.2736 2.77964 13.0941 2.78237L15.4071 2.78125ZM14.2506 8.40625C12.7588 8.40625 11.3281 8.99888 10.2732 10.0538C9.21827 11.1087 8.62564 12.5394 8.62564 14.0312C8.62564 15.5231 9.21827 16.9538 10.2732 18.0087C11.3281 19.0636 12.7588 19.6562 14.2506 19.6562C15.7425 19.6562 17.1732 19.0636 18.2281 18.0087C19.283 16.9538 19.8756 15.5231 19.8756 14.0312C19.8756 12.5394 19.283 11.1087 18.2281 10.0538C17.1732 8.99888 15.7425 8.40625 14.2506 8.40625ZM14.2506 10.6562C14.6939 10.6562 15.1327 10.7434 15.5422 10.9129C15.9517 11.0825 16.3238 11.331 16.6373 11.6444C16.9507 11.9577 17.1994 12.3297 17.3691 12.7392C17.5388 13.1486 17.6261 13.5875 17.6262 14.0307C17.6263 14.4739 17.5391 14.9128 17.3695 15.3223C17.2 15.7318 16.9514 16.1039 16.6381 16.4173C16.3247 16.7308 15.9527 16.9794 15.5433 17.1491C15.1338 17.3188 14.695 17.4062 14.2518 17.4062C13.3567 17.4062 12.4982 17.0507 11.8653 16.4177C11.2323 15.7848 10.8768 14.9264 10.8768 14.0312C10.8768 13.1361 11.2323 12.2777 11.8653 11.6448C12.4982 11.0118 13.3567 10.6562 14.2518 10.6562M20.158 6.71875C19.7851 6.71875 19.4274 6.86691 19.1636 7.13063C18.8999 7.39435 18.7518 7.75204 18.7518 8.125C18.7518 8.49796 18.8999 8.85565 19.1636 9.11937C19.4274 9.38309 19.7851 9.53125 20.158 9.53125C20.531 9.53125 20.8887 9.38309 21.1524 9.11937C21.4161 8.85565 21.5643 8.49796 21.5643 8.125C21.5643 7.75204 21.4161 7.39435 21.1524 7.13063C20.8887 6.86691 20.531 6.71875 20.158 6.71875Z" fill="white"/>
</svg>
