<svg width="27" height="27" viewBox="0 0 27 27" fill="none" xmlns="http://www.w3.org/2000/svg">
<path fill-rule="evenodd" clip-rule="evenodd" d="M20.25 3.375C21.1451 3.375 22.0036 3.73058 22.6365 4.36351C23.2694 4.99645 23.625 5.85489 23.625 6.75V20.25C23.625 21.1451 23.2694 22.0036 22.6365 22.6365C22.0036 23.2694 21.1451 23.625 20.25 23.625H6.75C5.85489 23.625 4.99645 23.2694 4.36351 22.6365C3.73058 22.0036 3.375 21.1451 3.375 20.25V6.75C3.375 5.85489 3.73058 4.99645 4.36351 4.36351C4.99645 3.73058 5.85489 3.375 6.75 3.375H20.25ZM9 11.25C8.70163 11.25 8.41548 11.3685 8.2045 11.5795C7.99353 11.7905 7.875 12.0766 7.875 12.375V18C7.875 18.2984 7.99353 18.5845 8.2045 18.7955C8.41548 19.0065 8.70163 19.125 9 19.125C9.29837 19.125 9.58452 19.0065 9.7955 18.7955C10.0065 18.5845 10.125 18.2984 10.125 18V12.375C10.125 12.0766 10.0065 11.7905 9.7955 11.5795C9.58452 11.3685 9.29837 11.25 9 11.25ZM12.375 10.125C12.0766 10.125 11.7905 10.2435 11.5795 10.4545C11.3685 10.6655 11.25 10.9516 11.25 11.25V18C11.25 18.2984 11.3685 18.5845 11.5795 18.7955C11.7905 19.0065 12.0766 19.125 12.375 19.125C12.6734 19.125 12.9595 19.0065 13.1705 18.7955C13.3815 18.5845 13.5 18.2984 13.5 18V13.8825C13.8431 13.4955 14.4225 13.041 15.0671 12.7654C15.4417 12.6056 16.0054 12.5404 16.3969 12.6641C16.5268 12.6971 16.6424 12.7713 16.7265 12.8756C16.785 12.9544 16.875 13.1299 16.875 13.5V18C16.875 18.2984 16.9935 18.5845 17.2045 18.7955C17.4155 19.0065 17.7016 19.125 18 19.125C18.2984 19.125 18.5845 19.0065 18.7955 18.7955C19.0065 18.5845 19.125 18.2984 19.125 18V13.5C19.125 12.7463 18.9338 12.0757 18.5355 11.538C18.169 11.0504 17.6562 10.6928 17.0719 10.5176C16.0571 10.1993 14.9333 10.3759 14.1829 10.6976C13.9426 10.8009 13.7086 10.9181 13.482 11.0486C13.4348 10.7894 13.2982 10.555 13.0959 10.3862C12.8936 10.2174 12.6385 10.125 12.375 10.125ZM9 7.875C8.70163 7.875 8.41548 7.99353 8.2045 8.2045C7.99353 8.41548 7.875 8.70163 7.875 9C7.875 9.29837 7.99353 9.58452 8.2045 9.7955C8.41548 10.0065 8.70163 10.125 9 10.125C9.29837 10.125 9.58452 10.0065 9.7955 9.7955C10.0065 9.58452 10.125 9.29837 10.125 9C10.125 8.70163 10.0065 8.41548 9.7955 8.2045C9.58452 7.99353 9.29837 7.875 9 7.875Z" fill="white"/>
</svg>
