<svg width="115" height="26" viewBox="0 0 115 26" fill="none" xmlns="http://www.w3.org/2000/svg">
<path d="M10.71 14.2842C9.91728 14.2842 9.29014 14.9666 9.43931 15.7452C9.88723 18.083 10.8839 20.2259 12.2907 22.0351C12.7668 22.6472 13.674 22.6472 14.15 22.0351C15.557 20.2259 16.5536 18.0832 17.0014 15.7452C17.1506 14.9666 16.5235 14.2842 15.7308 14.2842H10.71Z" fill="white"/>
<path d="M21.1638 14.2842C20.4585 14.2842 19.878 14.8287 19.7746 15.5264C19.3057 18.691 17.9911 21.5803 16.0693 23.9562C15.6538 24.4698 15.7132 25.234 16.2357 25.6385C16.512 25.8524 16.8733 25.9284 17.2071 25.8252C21.8324 24.3963 25.3948 20.5462 26.4139 15.7555C26.5799 14.9753 25.9508 14.2842 25.1531 14.2842H21.1638Z" fill="white"/>
<path d="M1.28749 14.2842C0.489842 14.2842 -0.139221 14.9753 0.0267449 15.7555C1.08232 20.7178 4.86656 24.6708 9.73433 25.9694C10.0643 26.0573 10.4132 25.9509 10.6514 25.7062C11.0202 25.3272 11.021 24.7263 10.6774 24.3243C8.58916 21.8813 7.15947 18.8563 6.66606 15.5264C6.56269 14.8287 5.98213 14.2842 5.27688 14.2842H1.28749Z" fill="white"/>
<path d="M26.4139 10.1153C26.5798 10.8955 25.9508 11.5866 25.1531 11.5866H21.1638C20.4585 11.5866 19.8779 11.0421 19.7746 10.3444C19.3057 7.17979 17.9911 4.29049 16.0693 1.9146C15.6538 1.40092 15.7132 0.636796 16.2357 0.232335C16.512 0.0183894 16.8733 -0.0575659 17.2071 0.0455964C21.8324 1.47453 25.3948 5.32457 26.4139 10.1153Z" fill="white"/>
<path d="M17.0016 10.126C17.1506 10.9046 16.5235 11.587 15.7308 11.587H10.71C9.91728 11.587 9.29014 10.9046 9.43931 10.126C9.88725 7.78809 10.8838 5.6453 12.2907 3.83602C12.7668 3.22392 13.674 3.22394 14.15 3.83602C15.557 5.6453 16.5536 7.78809 17.0016 10.126Z" fill="white"/>
<path d="M9.23139 0.046644C9.56637 -0.056896 9.92875 0.0197202 10.2055 0.234988C10.7265 0.640232 10.7852 1.40336 10.3701 1.91661C8.44897 4.29219 7.13489 7.18089 6.66608 10.3448C6.5627 11.0424 5.98214 11.5871 5.27689 11.5871H1.2875C0.489855 11.5871 -0.139222 10.8959 0.0267445 10.1157C1.04565 5.3257 4.60709 1.47612 9.23139 0.046644Z" fill="white"/>
<path d="M29.0774 18.0117C29.5051 18.1816 29.842 18.3135 30.0881 18.4072C30.3342 18.501 30.592 18.583 30.8616 18.6533C30.9377 18.46 30.9758 18.1963 30.9758 17.8623C30.9758 17.4111 30.9436 16.585 30.8792 15.3838C30.7854 13.7783 30.7385 12.5479 30.7385 11.6924C30.7385 11.1006 30.7561 10.5908 30.7913 10.1631L29.3411 10.0752L29.3147 12.8438C28.8752 12.9902 28.3801 13.0635 27.8293 13.0635C27.6887 13.0635 27.5833 13.0605 27.5129 13.0547C27.3196 12.9023 27.1174 12.6621 26.9065 12.334C26.7014 12.0059 26.5315 11.6367 26.3967 11.2266C26.262 10.8164 26.1946 10.4209 26.1946 10.04C26.1946 9.38379 26.303 8.88281 26.5198 8.53711C26.7366 8.19141 27.0413 7.9541 27.4338 7.8252C27.8264 7.69043 28.3508 7.60254 29.0071 7.56152C30.0266 7.50293 31.2249 7.45898 32.6018 7.42969C33.9846 7.39453 35.3059 7.37695 36.5657 7.37695C36.7356 7.59375 36.8616 7.83691 36.9436 8.10645C37.0315 8.37598 37.0754 8.64551 37.0754 8.91504C37.0754 9.41895 36.9465 9.84082 36.6887 10.1807C36.4309 10.5205 36.05 10.6904 35.5461 10.6904C35.218 10.6904 34.8225 10.6318 34.3596 10.5146C34.2542 13.2686 34.1018 15.8115 33.9026 18.1436C33.8616 18.5947 33.7942 18.9932 33.7004 19.3389C33.6067 19.6846 33.4631 19.9863 33.2698 20.2441C33.0295 20.5605 32.6985 20.7949 32.2766 20.9473C31.8547 21.0996 31.3889 21.1758 30.8792 21.1758C30.3987 21.1758 29.9241 21.0908 29.4553 20.9209C28.9924 20.751 28.6438 20.4375 28.4094 19.9805C28.4153 19.5996 28.4622 19.2627 28.55 18.9697C28.6379 18.6709 28.8137 18.3516 29.0774 18.0117ZM37.8137 14.0215C37.8137 12.668 37.8372 11.4668 37.884 10.418L36.6975 10.2334C36.6213 10.0166 36.5627 9.77637 36.5217 9.5127C36.4807 9.24902 36.4602 8.99414 36.4602 8.74805C36.4602 8.56055 36.4749 8.35547 36.5042 8.13281C37.2717 7.86328 38.2854 7.66992 39.5452 7.55273C40.8049 7.43555 42.0354 7.37695 43.2366 7.37695C44.1331 7.37695 44.9036 7.44727 45.5481 7.58789C46.1926 7.72852 46.7317 8.04785 47.1653 8.5459C47.6047 9.03809 47.8245 9.77637 47.8245 10.7607C47.8245 11.165 47.76 11.6133 47.6311 12.1055C47.5022 12.5918 47.3235 13.0781 47.095 13.5645C46.884 14.0098 46.6438 14.4346 46.3743 14.8389C46.1106 15.2373 45.8352 15.5801 45.5481 15.8672C45.718 16.3125 45.8938 16.7197 46.0754 17.0889C46.2571 17.4521 46.5354 17.8945 46.9104 18.416L48.1409 17.8975C48.5979 18.29 48.8645 18.8115 48.9407 19.4619C48.9407 19.4971 48.8 19.6641 48.5188 19.9629C48.2434 20.2617 47.8831 20.54 47.4377 20.7979C46.9924 21.0498 46.4915 21.1758 45.9348 21.1758C45.5012 21.1758 45.1116 21.0996 44.7659 20.9473C44.426 20.7949 44.1448 20.5283 43.9221 20.1475C43.7053 19.7725 43.5325 19.3271 43.4036 18.8115C43.2747 18.2959 43.1838 17.7861 43.1311 17.2822L41.1272 17.1943C41.1799 17.6514 41.2473 18.123 41.3293 18.6094C41.4114 19.0898 41.4612 19.3799 41.4788 19.4795C41.5784 20.0596 41.6428 20.4551 41.6721 20.666C41.4026 20.8301 41.0745 20.9561 40.6877 21.0439C40.3069 21.1318 39.9172 21.1758 39.5188 21.1758C39.0618 21.1758 38.6194 21.1143 38.1917 20.9912C38.0627 20.4756 37.9661 19.5732 37.9016 18.2842C37.843 16.9893 37.8137 15.5684 37.8137 14.0215ZM43.2805 15.0762C43.4856 14.4902 43.6467 13.8545 43.7639 13.1689C43.887 12.4775 43.9983 11.6543 44.0979 10.6992C43.928 10.6348 43.7053 10.585 43.4299 10.5498C43.1545 10.5146 42.8879 10.4971 42.6301 10.4971C42.0442 10.4971 41.6047 10.5117 41.3118 10.541C41.2473 12.7441 41.177 14.3057 41.1008 15.2256L43.2805 15.0762ZM49.2834 18.1787C49.6409 18.2959 49.9661 18.3896 50.259 18.46C50.8274 16.1748 51.4749 13.4766 52.2014 10.3652L50.0833 10.1367C49.9485 9.76758 49.8811 9.34863 49.8811 8.87988C49.8811 8.52246 49.9221 8.17383 50.0042 7.83398C50.8538 7.66992 51.8323 7.55273 52.9397 7.48242C54.053 7.40625 55.0081 7.36816 55.8049 7.36816C56.3792 7.36816 56.8098 7.37109 57.0969 7.37695L57.6506 7.69336C58.635 10.3945 59.634 14.0479 60.6477 18.6533C60.6594 18.7002 60.6799 18.7939 60.7092 18.9346C60.7444 19.0752 60.7708 19.21 60.7883 19.3389C60.8059 19.4619 60.8147 19.5791 60.8147 19.6904C60.8147 20.1826 60.6389 20.5811 60.2874 20.8857C59.7952 21.0791 59.2004 21.1758 58.5032 21.1758C58.175 21.1758 57.844 21.1406 57.51 21.0703C57.176 21 56.9504 20.8916 56.8333 20.7451L56.9387 18.4775L56.719 17.2998C56.3381 17.3232 55.8899 17.335 55.3743 17.335C54.8235 17.335 54.3079 17.3174 53.8274 17.2822L53.7219 17.7568C53.4934 18.7764 53.3059 19.5 53.1594 19.9277C53.0188 20.3555 52.8079 20.6719 52.5266 20.877C52.2512 21.082 51.8381 21.1846 51.2874 21.1846C50.9299 21.1846 50.5696 21.1377 50.2063 21.0439C49.843 20.9561 49.5149 20.8359 49.2219 20.6836C48.929 20.5312 48.7092 20.3672 48.5627 20.1914C48.5627 19.7695 48.6272 19.3682 48.7561 18.9873C48.885 18.6064 49.0608 18.3369 49.2834 18.1787ZM55.4446 10.4443H55.0403L54.4075 14.7773H56.3762L55.4446 10.4443ZM64.4006 19.0137C64.1838 18.293 63.8674 17.3145 63.4514 16.0781C63.0354 14.8418 62.6252 13.6934 62.2209 12.6328C61.8225 11.5723 61.5295 10.9131 61.342 10.6553L60.5774 10.5938C60.3606 9.94336 60.2522 9.39551 60.2522 8.9502C60.4573 8.44043 60.7649 8.05371 61.175 7.79004C61.5852 7.52051 62.0833 7.38574 62.6692 7.38574C63.5715 7.38574 64.2512 7.77832 64.7083 8.56348C64.9954 9.05566 65.2385 9.67383 65.4377 10.418C65.6428 11.1562 65.842 12.0469 66.0354 13.0898C66.4163 15.0762 66.6506 16.7256 66.7385 18.0381L66.9407 18.0029C67.093 17.6689 67.2864 16.9893 67.5208 15.9639C67.7551 14.9385 67.9573 13.8809 68.1272 12.791C68.2971 11.6953 68.3821 10.8721 68.3821 10.3213L67.2219 10.1543C67.1399 9.86133 67.0813 9.60645 67.0461 9.38965C67.011 9.16699 66.9905 8.92676 66.9846 8.66895C66.9846 8.64551 66.9846 8.61328 66.9846 8.57227C66.9905 8.53125 66.9905 8.48145 66.9846 8.42285C67.1135 8.27051 67.3274 8.1123 67.6262 7.94824C67.925 7.78418 68.2708 7.64648 68.6633 7.53516C69.0618 7.42383 69.4602 7.36816 69.8586 7.36816C70.6614 7.36816 71.2502 7.56738 71.6252 7.96582C72.0002 8.3584 72.1877 8.96191 72.1877 9.77637C72.1877 10.3389 72.1116 11.0068 71.9592 11.7803C71.8069 12.5537 71.593 13.3535 71.3176 14.1797C71.1184 14.7773 70.8196 15.5244 70.4211 16.4209C70.0227 17.3115 69.595 18.167 69.1379 18.9873C68.6868 19.8076 68.2795 20.4258 67.9163 20.8418C67.7463 20.9531 67.5413 21.0352 67.301 21.0879C67.0608 21.1465 66.8206 21.1758 66.5803 21.1758C66.2463 21.1758 65.9036 21.1289 65.552 21.0352C65.2063 20.9473 64.8987 20.8213 64.6292 20.6572C64.3655 20.4932 64.1809 20.3057 64.0754 20.0947L64.4006 19.0137ZM72.636 18.8467C72.636 18.3252 72.7444 17.8184 72.9612 17.3262C73.0608 17.3262 73.2161 17.3467 73.427 17.3877C73.6438 17.4229 73.8694 17.4697 74.1038 17.5283C74.0686 15.9463 74.051 14.6484 74.051 13.6348C74.051 12.375 74.0745 11.2998 74.1213 10.4092L72.7678 10.2246C72.6917 10.0078 72.6331 9.77051 72.592 9.5127C72.551 9.24902 72.5305 8.99414 72.5305 8.74805C72.5305 8.56055 72.5452 8.35547 72.5745 8.13281C73.2717 7.86914 74.1887 7.67871 75.3254 7.56152C76.468 7.43848 77.6194 7.37695 78.7795 7.37695C79.8752 7.37695 80.6692 7.42676 81.1614 7.52637C81.4778 7.71973 81.7532 7.91602 81.9875 8.11523C82.2278 8.30859 82.4563 8.54883 82.6731 8.83594C82.6731 9.24609 82.6321 9.69141 82.55 10.1719C82.4739 10.6465 82.3655 11.083 82.2249 11.4814C82.0901 11.8799 81.9436 12.167 81.7854 12.3428C81.6506 12.4072 81.5012 12.457 81.3372 12.4922C81.1731 12.5215 80.9709 12.5361 80.7307 12.5361C80.5198 12.5361 80.3381 12.5186 80.1858 12.4834C80.0393 12.4424 79.8987 12.3838 79.7639 12.3076L79.4651 10.3916C79.0959 10.333 78.6565 10.3037 78.1467 10.3037C78.0061 10.3037 77.8655 10.3125 77.7249 10.3301C77.7014 11.1797 77.5813 12.3369 77.3645 13.8018C78.6653 13.585 79.7756 13.4268 80.6956 13.3271C80.9299 13.6846 81.0471 14.1211 81.0471 14.6367C81.0471 14.9766 81.0002 15.3047 80.9065 15.6211C80.8127 15.9375 80.7102 16.1572 80.5989 16.2803C80.3528 16.3213 80.0598 16.3418 79.72 16.3418C79.2805 16.3418 78.8235 16.3037 78.3489 16.2275C77.8801 16.1514 77.4407 16.04 77.0305 15.8936L76.9163 16.6406C76.8459 17.0566 76.7844 17.4668 76.7317 17.8711L82.2952 17.5459C82.3831 17.6279 82.4563 17.792 82.5149 18.0381C82.5793 18.2842 82.6116 18.5537 82.6116 18.8467C82.6116 19.3154 82.5178 19.7256 82.3303 20.0771C82.1428 20.4287 81.8938 20.7012 81.5833 20.8945C81.2786 21.082 80.9504 21.1758 80.5989 21.1758C80.2473 21.1758 79.7668 21.0996 79.1575 20.9473C78.554 20.7891 77.9651 20.5928 77.3909 20.3584C76.8225 20.124 76.4036 19.8984 76.134 19.6816C75.8645 20.1504 75.5686 20.5078 75.2463 20.7539C74.9299 21 74.5198 21.1406 74.0159 21.1758C73.7639 21.1348 73.5325 21.0059 73.3215 20.7891C73.1106 20.5723 72.9436 20.2939 72.8206 19.9541C72.6975 19.6143 72.636 19.2451 72.636 18.8467ZM83.2883 18.7764C83.2883 18.2432 83.3967 17.7305 83.6135 17.2383C83.7131 17.2383 83.8684 17.2588 84.0793 17.2998C84.2903 17.335 84.5129 17.3818 84.7473 17.4404C84.718 16.1807 84.7034 14.9502 84.7034 13.749C84.7034 12.4541 84.7268 11.3496 84.7737 10.4355H84.7649L84.7737 10.3301L83.3411 10.1455C83.2532 9.78809 83.1946 9.49219 83.1653 9.25781C83.136 9.01758 83.1243 8.74219 83.1301 8.43164C83.3176 8.2207 83.593 8.03613 83.9563 7.87793C84.3254 7.71387 84.7209 7.59082 85.1428 7.50879C85.5706 7.4209 85.9602 7.37695 86.3118 7.37695C86.9856 7.37695 87.51 7.51172 87.885 7.78125C88.2659 8.04492 88.4827 8.4668 88.5354 9.04688C88.553 9.27539 88.5618 9.52441 88.5618 9.79395C88.5618 10.6846 88.4827 11.7393 88.3245 12.958C88.1663 14.1768 87.9553 15.6006 87.6917 17.2295L87.6213 17.6865L89.8625 17.8096L90.7766 14.8916C91.052 14.8799 91.3655 14.9004 91.717 14.9531C92.0745 15.0059 92.3821 15.0791 92.6399 15.1729C92.7454 15.4482 92.842 15.8877 92.9299 16.4912C93.0237 17.0889 93.0706 17.6748 93.0706 18.249C93.0706 19.2041 92.9299 19.875 92.6487 20.2617C92.5081 20.4492 92.3118 20.6133 92.0598 20.7539C91.8137 20.8887 91.553 20.9912 91.2776 21.0615C91.0081 21.1377 90.7649 21.1758 90.5481 21.1758C90.2024 21.1758 89.7981 21.1025 89.3352 20.9561C88.8723 20.8037 88.4182 20.6133 87.9729 20.3848C87.5276 20.1504 87.1614 19.916 86.8743 19.6816C86.6106 20.1387 86.3059 20.4932 85.9602 20.7451C85.6145 20.9971 85.1838 21.1406 84.6682 21.1758C84.4163 21.1348 84.1848 21.0029 83.9739 20.7803C83.7629 20.5576 83.5959 20.2705 83.4729 19.9189C83.3499 19.5674 83.2883 19.1865 83.2883 18.7764ZM93.3606 18.7764C93.3606 18.2432 93.469 17.7305 93.6858 17.2383C93.7854 17.2383 93.9407 17.2588 94.1516 17.2998C94.3625 17.335 94.5852 17.3818 94.8196 17.4404C94.7903 16.1807 94.7756 14.9502 94.7756 13.749C94.7756 12.4541 94.7991 11.3496 94.8459 10.4355H94.8372L94.8459 10.3301L93.4133 10.1455C93.3254 9.78809 93.2668 9.49219 93.2375 9.25781C93.2083 9.01758 93.1965 8.74219 93.2024 8.43164C93.3899 8.2207 93.6653 8.03613 94.0286 7.87793C94.3977 7.71387 94.7932 7.59082 95.2151 7.50879C95.6428 7.4209 96.0325 7.37695 96.384 7.37695C97.0579 7.37695 97.5823 7.51172 97.9573 7.78125C98.3381 8.04492 98.5549 8.4668 98.6077 9.04688C98.6252 9.27539 98.634 9.52441 98.634 9.79395C98.634 10.6846 98.5549 11.7393 98.3967 12.958C98.2385 14.1768 98.0276 15.6006 97.7639 17.2295L97.6936 17.6865L99.9348 17.8096L100.849 14.8916C101.124 14.8799 101.438 14.9004 101.789 14.9531C102.147 15.0059 102.454 15.0791 102.712 15.1729C102.818 15.4482 102.914 15.8877 103.002 16.4912C103.096 17.0889 103.143 17.6748 103.143 18.249C103.143 19.2041 103.002 19.875 102.721 20.2617C102.58 20.4492 102.384 20.6133 102.132 20.7539C101.886 20.8887 101.625 20.9912 101.35 21.0615C101.08 21.1377 100.837 21.1758 100.62 21.1758C100.275 21.1758 99.8704 21.1025 99.4075 20.9561C98.9446 20.8037 98.4905 20.6133 98.0452 20.3848C97.5999 20.1504 97.2336 19.916 96.9465 19.6816C96.6829 20.1387 96.3782 20.4932 96.0325 20.7451C95.6868 20.9971 95.2561 21.1406 94.7405 21.1758C94.4885 21.1348 94.2571 21.0029 94.0461 20.7803C93.8352 20.5576 93.6682 20.2705 93.5452 19.9189C93.4221 19.5674 93.3606 19.1865 93.3606 18.7764ZM106.65 16.8516C106.363 16.4062 106.017 15.8086 105.613 15.0586C105.214 14.3086 104.822 13.5088 104.435 12.6592C104.054 11.8096 103.755 11.0332 103.538 10.3301L102.202 10.1455C102.115 9.78809 102.056 9.49219 102.027 9.25781C101.997 9.01758 101.986 8.74219 101.991 8.43164C102.109 8.28516 102.32 8.12988 102.624 7.96582C102.923 7.7959 103.269 7.65527 103.661 7.54395C104.054 7.43262 104.441 7.37695 104.822 7.37695C105.911 7.37695 106.594 7.78711 106.869 8.60742C106.981 8.86523 107.151 9.33691 107.379 10.0225C107.614 10.7021 107.851 11.4697 108.091 12.3252C108.331 13.1807 108.519 13.9863 108.654 14.7422C109.011 14.0273 109.365 13.2363 109.717 12.3691C110.069 11.502 110.303 10.8164 110.42 10.3125H110.403L109.33 10.1279C109.242 9.77051 109.184 9.47461 109.155 9.24023C109.125 9 109.114 8.72461 109.119 8.41406C109.237 8.26758 109.445 8.1123 109.743 7.94824C110.048 7.77832 110.397 7.6377 110.789 7.52637C111.182 7.41504 111.569 7.35938 111.949 7.35938C113.074 7.35938 113.763 7.79297 114.015 8.66016C114.079 8.87695 114.112 9.09082 114.112 9.30176C114.112 9.92871 113.851 10.7227 113.329 11.6836C112.808 12.6445 112.207 13.5791 111.528 14.4873C110.848 15.3955 110.265 16.1133 109.779 16.6406C109.656 17.3965 109.544 17.9883 109.445 18.416L109.462 18.4336L110.763 17.8887C111.22 18.2812 111.487 18.8027 111.563 19.4531C111.563 19.4883 111.422 19.6553 111.141 19.9541C110.865 20.2529 110.505 20.5312 110.06 20.7891C109.615 21.041 109.114 21.167 108.557 21.167C107.983 21.167 107.517 21.0059 107.159 20.6836C106.802 20.3613 106.626 19.8105 106.632 19.0312L106.65 16.8516Z" fill="white"/>
</svg>
