<svg width="27" height="27" viewBox="0 0 27 27" fill="none" xmlns="http://www.w3.org/2000/svg">
<g clip-path="url(#clip0_29_295)">
<path fill-rule="evenodd" clip-rule="evenodd" d="M7.59375 14.3438H16.5257L13.0477 17.82C12.7187 18.1491 12.7187 18.6891 13.0477 19.0182C13.3776 19.3472 13.9117 19.3472 14.2417 19.0182L19.0148 14.2425C19.2164 14.04 19.2797 13.7616 19.2333 13.5C19.2797 13.2384 19.2164 12.96 19.0148 12.7575L14.2417 7.98184C13.9117 7.65278 13.3776 7.65278 13.0477 7.98184C12.7187 8.31934 12.7187 8.85094 13.0477 9.18L16.5257 12.6562H7.59375C7.128 12.6562 6.75 13.0359 6.75 13.5C6.75 13.9641 7.128 14.3438 7.59375 14.3438ZM13.5 0C20.9554 0 27 6.04125 27 13.5C27 20.9587 20.9554 27 13.5 27C6.04462 27 0 20.9587 0 13.5C0 6.04125 6.04462 0 13.5 0Z" fill="black"/>
</g>
<defs>
<clipPath id="clip0_29_295">
<rect width="27" height="27" fill="white" transform="matrix(-1 0 0 1 27 0)"/>
</clipPath>
</defs>
</svg>
