<svg width="763" height="269" viewBox="0 0 763 269" fill="none" xmlns="http://www.w3.org/2000/svg">
<g clip-path="url(#clip0_367_1659)">
<rect width="763.003" height="269" fill="#D6D6D6"/>
<path d="M959.846 84.7334L906.889 -3.96954L913.509 -18.5327L979.705 90.0291L786.412 194.619L659.315 -18.5327H675.203L791.708 174.76L959.846 84.7334Z" fill="#464646" fill-opacity="0.6"/>
<path d="M650.046 214.477L618.272 79.4362H635.527L667.257 222.387L574.604 360.108L509.71 64.873H524.273L579.878 324.362L650.046 214.477Z" fill="#464646" fill-opacity="0.6"/>
<path d="M697.199 319.928L764.191 398.571L760.09 414.034L676.736 318.014L849.908 182.69L1010.73 371.695L995.067 374.341L847.994 203.153L697.199 319.928Z" fill="#464646" fill-opacity="0.6"/>
<path d="M284.136 89.5642L351.128 168.208L347.026 183.67L263.672 87.6502L436.845 -47.6739L647.401 148.28L647.401 168.207L434.931 -27.2104L284.136 89.5642Z" fill="#464646" fill-opacity="0.6"/>
<path d="M157.037 253.732L224.029 332.375L219.928 347.838L136.574 251.818L309.746 116.494L470.57 305.499L454.905 308.145L307.832 136.958L157.037 253.732Z" fill="#464646" fill-opacity="0.6"/>
<path d="M212.642 319.928L279.634 398.571L275.532 414.034L192.178 318.014L365.351 182.69L526.175 371.695L510.51 374.341L363.437 203.153L212.642 319.928Z" fill="#464646" fill-opacity="0.6"/>
<path d="M229.857 61.626L159.768 230.936L136.408 249.037L221.117 40.9454L509.711 -7.94132L333.152 409.99L312.446 395.854L472.641 22.509L229.857 61.626Z" fill="#464646" fill-opacity="0.6"/>
<path d="M66.781 139.883L-20.1755 195.662L-34.9437 189.513L71.4362 119.865L182.18 309.699L-26.7803 443.576L-27.2905 427.697L162.161 305.044L66.781 139.883Z" fill="#464646" fill-opacity="0.6"/>
<path d="M466.022 111.21L560.021 -26.478H573.26L640.781 88.7034L729.483 78.112L740.075 101.943L631.513 111.21L566.641 -1.32346L481.91 124.449L466.022 111.21Z" fill="#464646" fill-opacity="0.6"/>
<path d="M391.883 222.421L485.881 84.7324H499.121L548.106 193.294V222.421L492.501 109.887L407.77 235.66L391.883 222.421Z" fill="#464646" fill-opacity="0.6"/>
<path d="M-37.0703 119.155L56.9283 -18.5327H70.1676L182.701 148.282L176.082 173.436L63.548 6.62186L-21.1832 132.395L-37.0703 119.155Z" fill="#464646" fill-opacity="0.6"/>
<path d="M267.433 383.938L361.431 246.25H374.671L444.839 364.079L426.304 374.671L368.051 271.405L283.32 397.177L267.433 383.938Z" fill="#464646" fill-opacity="0.6"/>
<path d="M598.415 383.938L692.414 246.25H705.653L775.821 364.079L765.23 372.023L699.033 262.137L610.33 391.882L598.415 383.938Z" fill="#464646" fill-opacity="0.6"/>
<g filter="url(#filter0_d_367_1659)">
<rect width="215" height="59" transform="translate(273 103)" fill="white"/>
<path d="M315.603 121.817H322.026C324.86 121.817 326.991 122.242 328.418 123.09C329.845 123.938 330.559 125.381 330.559 127.418C330.559 128.297 330.388 129.089 330.047 129.792C329.716 130.485 329.23 131.059 328.589 131.514C327.948 131.969 327.156 132.285 326.215 132.461V132.616C327.208 132.771 328.087 133.055 328.853 133.469C329.618 133.883 330.218 134.462 330.652 135.207C331.087 135.951 331.304 136.898 331.304 138.046C331.304 139.442 330.978 140.621 330.326 141.583C329.685 142.545 328.775 143.274 327.596 143.771C326.417 144.257 325.02 144.5 323.407 144.5H315.603V121.817ZM318.24 131.545H322.585C324.56 131.545 325.925 131.219 326.68 130.568C327.446 129.916 327.829 128.965 327.829 127.713C327.829 126.42 327.373 125.489 326.463 124.92C325.563 124.352 324.126 124.067 322.15 124.067H318.24V131.545ZM318.24 133.764V142.25H322.957C324.974 142.25 326.401 141.857 327.239 141.071C328.077 140.275 328.496 139.204 328.496 137.86C328.496 137.001 328.304 136.267 327.922 135.657C327.549 135.046 326.939 134.581 326.091 134.26C325.253 133.929 324.131 133.764 322.724 133.764H318.24ZM342.707 121.461C343.824 121.461 344.786 121.657 345.593 122.05C346.41 122.433 347.036 122.986 347.47 123.71C347.915 124.434 348.137 125.308 348.137 126.332C348.137 127.677 347.698 128.815 346.819 129.745C345.95 130.676 344.843 131.525 343.498 132.29L349.797 138.403C350.366 137.741 350.832 136.975 351.194 136.107C351.556 135.227 351.861 134.276 352.109 133.252H354.716C354.385 134.617 353.955 135.874 353.428 137.022C352.911 138.17 352.259 139.178 351.473 140.047L356.019 144.5H352.528L349.72 141.754C349.058 142.364 348.344 142.902 347.579 143.367C346.824 143.823 345.981 144.179 345.05 144.438C344.129 144.686 343.074 144.81 341.885 144.81C340.437 144.81 339.18 144.572 338.115 144.097C337.049 143.621 336.222 142.923 335.632 142.002C335.053 141.082 334.764 139.954 334.764 138.62C334.764 137.524 334.965 136.582 335.369 135.796C335.772 135.01 336.346 134.312 337.091 133.702C337.836 133.091 338.725 132.497 339.759 131.918C339.273 131.38 338.813 130.837 338.379 130.288C337.944 129.73 337.593 129.135 337.324 128.504C337.055 127.863 336.92 127.16 336.92 126.394C336.92 125.36 337.153 124.476 337.618 123.741C338.094 123.007 338.761 122.443 339.62 122.05C340.489 121.657 341.518 121.461 342.707 121.461ZM341.311 133.547C340.504 134.012 339.811 134.472 339.232 134.927C338.663 135.383 338.223 135.894 337.913 136.463C337.613 137.032 337.463 137.72 337.463 138.527C337.463 139.737 337.872 140.709 338.689 141.444C339.506 142.168 340.597 142.53 341.962 142.53C343.369 142.53 344.564 142.297 345.546 141.831C346.539 141.366 347.382 140.802 348.075 140.14L341.311 133.547ZM342.614 123.586C341.673 123.586 340.907 123.834 340.318 124.331C339.739 124.817 339.449 125.5 339.449 126.379C339.449 127.165 339.661 127.889 340.085 128.551C340.509 129.213 341.114 129.947 341.9 130.754C343.193 130.04 344.129 129.352 344.709 128.69C345.298 128.018 345.593 127.232 345.593 126.332C345.593 125.515 345.319 124.853 344.771 124.346C344.233 123.84 343.514 123.586 342.614 123.586ZM359.292 121.817H365.716C368.55 121.817 370.68 122.242 372.108 123.09C373.535 123.938 374.249 125.381 374.249 127.418C374.249 128.297 374.078 129.089 373.737 129.792C373.406 130.485 372.92 131.059 372.278 131.514C371.637 131.969 370.846 132.285 369.905 132.461V132.616C370.897 132.771 371.777 133.055 372.542 133.469C373.307 133.883 373.907 134.462 374.342 135.207C374.776 135.951 374.993 136.898 374.993 138.046C374.993 139.442 374.668 140.621 374.016 141.583C373.375 142.545 372.464 143.274 371.285 143.771C370.106 144.257 368.71 144.5 367.096 144.5H359.292V121.817ZM361.93 131.545H366.274C368.25 131.545 369.615 131.219 370.37 130.568C371.135 129.916 371.518 128.965 371.518 127.713C371.518 126.42 371.063 125.489 370.153 124.92C369.253 124.352 367.815 124.067 365.84 124.067H361.93V131.545ZM361.93 133.764V142.25H366.646C368.663 142.25 370.091 141.857 370.929 141.071C371.766 140.275 372.185 139.204 372.185 137.86C372.185 137.001 371.994 136.267 371.611 135.657C371.239 135.046 370.629 134.581 369.78 134.26C368.943 133.929 367.82 133.764 366.414 133.764H361.93ZM388.088 144.5V121.817H390.725V144.5H388.088ZM404.627 127.186C406.643 127.186 408.169 127.682 409.203 128.675C410.238 129.658 410.755 131.24 410.755 133.422V144.5H408.21V133.593C408.21 132.176 407.885 131.116 407.233 130.413C406.592 129.709 405.604 129.358 404.27 129.358C402.387 129.358 401.063 129.89 400.298 130.956C399.533 132.021 399.15 133.567 399.15 135.595V144.5H396.574V127.496H398.653L399.041 129.947H399.181C399.543 129.347 400.003 128.846 400.562 128.442C401.12 128.029 401.746 127.718 402.439 127.511C403.132 127.294 403.861 127.186 404.627 127.186ZM424.113 127.186C426.13 127.186 427.656 127.682 428.69 128.675C429.724 129.658 430.241 131.24 430.241 133.422V144.5H427.697V133.593C427.697 132.176 427.371 131.116 426.72 130.413C426.078 129.709 425.09 129.358 423.756 129.358C421.874 129.358 420.55 129.89 419.784 130.956C419.019 132.021 418.636 133.567 418.636 135.595V144.5H416.061V127.496H418.14L418.528 129.947H418.667C419.029 129.347 419.49 128.846 420.048 128.442C420.607 128.029 421.232 127.718 421.925 127.511C422.618 127.294 423.348 127.186 424.113 127.186ZM446.547 139.846C446.547 140.932 446.273 141.847 445.725 142.592C445.187 143.326 444.412 143.879 443.398 144.252C442.395 144.624 441.195 144.81 439.798 144.81C438.609 144.81 437.58 144.717 436.711 144.531C435.842 144.345 435.082 144.081 434.43 143.74V141.366C435.123 141.707 435.951 142.018 436.913 142.297C437.875 142.576 438.857 142.716 439.861 142.716C441.329 142.716 442.395 142.478 443.057 142.002C443.719 141.526 444.05 140.88 444.05 140.063C444.05 139.597 443.915 139.189 443.646 138.837C443.388 138.475 442.948 138.129 442.327 137.798C441.707 137.456 440.848 137.084 439.752 136.681C438.666 136.267 437.725 135.858 436.928 135.455C436.142 135.041 435.532 134.54 435.097 133.95C434.673 133.36 434.461 132.595 434.461 131.654C434.461 130.216 435.041 129.115 436.199 128.349C437.368 127.573 438.899 127.186 440.791 127.186C441.815 127.186 442.772 127.289 443.662 127.496C444.561 127.692 445.399 127.961 446.175 128.303L445.306 130.366C444.603 130.066 443.853 129.813 443.057 129.606C442.26 129.399 441.448 129.296 440.621 129.296C439.431 129.296 438.516 129.492 437.875 129.885C437.244 130.278 436.928 130.816 436.928 131.499C436.928 132.026 437.073 132.461 437.363 132.802C437.663 133.143 438.138 133.464 438.79 133.764C439.442 134.064 440.3 134.415 441.365 134.819C442.431 135.212 443.351 135.62 444.127 136.044C444.903 136.458 445.498 136.965 445.911 137.565C446.335 138.154 446.547 138.915 446.547 139.846Z" fill="#2C2C2C"/>
</g>
<rect x="349.725" y="172.112" width="63.5484" height="63.5484" rx="31.7742" fill="#60A2D8" fill-opacity="0.22"/>
<circle cx="381.499" cy="203.886" r="13.2392" fill="#60A2D8"/>
</g>
<defs>
<filter id="filter0_d_367_1659" x="251.288" y="91.879" width="258.425" height="102.425" filterUnits="userSpaceOnUse" color-interpolation-filters="sRGB">
<feFlood flood-opacity="0" result="BackgroundImageFix"/>
<feColorMatrix in="SourceAlpha" type="matrix" values="0 0 0 0 0 0 0 0 0 0 0 0 0 0 0 0 0 0 127 0" result="hardAlpha"/>
<feOffset dy="10.5914"/>
<feGaussianBlur stdDeviation="10.8562"/>
<feComposite in2="hardAlpha" operator="out"/>
<feColorMatrix type="matrix" values="0 0 0 0 0 0 0 0 0 0 0 0 0 0 0 0 0 0 0.41 0"/>
<feBlend mode="normal" in2="BackgroundImageFix" result="effect1_dropShadow_367_1659"/>
<feBlend mode="normal" in="SourceGraphic" in2="effect1_dropShadow_367_1659" result="shape"/>
</filter>
<clipPath id="clip0_367_1659">
<rect width="763.003" height="269" fill="white"/>
</clipPath>
</defs>
</svg>
