<svg width="34" height="34" viewBox="0 0 34 34" fill="none" xmlns="http://www.w3.org/2000/svg">
<g clip-path="url(#clip0_369_5967)">
<path d="M0 0V34H34V0H0ZM25.5 18.4166H11.9199L15.1683 21.665C15.7221 22.2189 15.7221 23.1143 15.1683 23.6682C14.892 23.9444 14.5294 24.0833 14.1666 24.0833C13.804 24.0833 13.4413 23.9444 13.165 23.6682L7.49839 18.0015C7.36804 17.8712 7.26464 17.7154 7.19239 17.5411C7.04929 17.1955 7.04929 16.8045 7.19239 16.4588C7.26464 16.2845 7.36804 16.1287 7.49839 15.9984L13.165 10.3317C13.7189 9.77786 14.6143 9.77786 15.1682 10.3317C15.7221 10.8856 15.7221 11.781 15.1682 12.3349L11.9198 15.5833H25.5C26.282 15.5833 26.9166 16.2179 26.9166 16.9999C26.9166 17.7819 26.282 18.4166 25.5 18.4166Z" fill="white"/>
</g>
<defs>
<clipPath id="clip0_369_5967">
<rect width="34" height="34" fill="white"/>
</clipPath>
</defs>
</svg>
