<svg width="48" height="48" viewBox="0 0 48 48" fill="none" xmlns="http://www.w3.org/2000/svg">
<circle cx="24" cy="24" r="23.5" fill="white"/>
<circle cx="24" cy="24" r="23.5" fill="white"/>
<circle cx="24" cy="24" r="23.5" stroke="#D6D6D6"/>
<path d="M24.0001 25.0496L18.7501 30.2996C18.6001 30.4496 18.4251 30.5246 18.2251 30.5246C18.0251 30.5246 17.8501 30.4496 17.7001 30.2996C17.5501 30.1496 17.4751 29.9746 17.4751 29.7746C17.4751 29.5746 17.5501 29.3996 17.7001 29.2496L22.9501 23.9996L17.7001 18.7496C17.5501 18.5996 17.4751 18.4246 17.4751 18.2246C17.4751 18.0246 17.5501 17.8496 17.7001 17.6996C17.8501 17.5496 18.0251 17.4746 18.2251 17.4746C18.4251 17.4746 18.6001 17.5496 18.7501 17.6996L24.0001 22.9496L29.2501 17.6996C29.4001 17.5496 29.5751 17.4746 29.7751 17.4746C29.9751 17.4746 30.1501 17.5496 30.3001 17.6996C30.4501 17.8496 30.5251 18.0246 30.5251 18.2246C30.5251 18.4246 30.4501 18.5996 30.3001 18.7496L25.0501 23.9996L30.3001 29.2496C30.4501 29.3996 30.5251 29.5746 30.5251 29.7746C30.5251 29.9746 30.4501 30.1496 30.3001 30.2996C30.1501 30.4496 29.9751 30.5246 29.7751 30.5246C29.5751 30.5246 29.4001 30.4496 29.2501 30.2996L24.0001 25.0496Z" fill="#211408" stroke="#211408"/>
</svg>
