<svg width="16" height="16" viewBox="0 0 16 16" fill="none" xmlns="http://www.w3.org/2000/svg">
<g clip-path="url(#clip0_358_9937)">
<path d="M0.392165 8.08543C0.477165 11.1354 2.51591 15.5292 8.07341 15.4729C13.4884 15.4179 15.6684 10.9354 15.4984 7.71543C15.3272 4.49543 12.7909 0.532929 7.77466 0.561679C2.75716 0.589179 0.299665 4.80668 0.392165 8.08543Z" fill="url(#paint0_radial_358_9937)"/>
<path d="M5.90105 2.76784C5.93605 2.81534 6.0948 2.75784 6.1698 2.76159C6.2448 2.76534 6.32605 2.79534 6.33605 2.86409C6.34605 2.93159 6.27105 2.94284 6.2273 3.03034C6.2048 3.07534 6.05355 3.37909 6.13605 3.41409C6.2448 3.46159 6.29855 3.35284 6.3223 3.30159C6.34605 3.25034 6.40355 3.14159 6.40355 3.14159C6.40355 3.14159 6.46855 2.99909 6.55355 3.00909C6.70605 3.02659 6.6448 3.24409 6.6448 3.24409C6.6448 3.24409 6.61105 3.40659 6.6923 3.44409C6.77355 3.48159 6.8523 3.45409 6.89605 3.43784C6.9398 3.42034 7.0148 3.43784 7.10355 3.40034C7.1923 3.36284 7.2298 3.32909 7.2898 3.30534C7.35105 3.28159 7.4048 3.29534 7.4123 3.24034C7.41855 3.18659 7.3648 3.13159 7.27355 3.12534C7.1823 3.11909 7.0698 3.22409 7.0323 3.25784C6.9948 3.29159 6.8723 3.31534 6.85855 3.22784C6.8448 3.14034 6.92355 3.13284 6.98105 3.09909C7.03855 3.06534 7.07605 3.01784 7.07605 3.01784C7.07605 3.01784 6.97105 2.88159 6.9398 2.87159C6.9098 2.86159 6.7873 2.89909 6.6648 2.81409C6.55105 2.73534 6.5048 2.62784 6.4748 2.60034C6.4448 2.57284 6.30855 2.52909 6.17605 2.55659C6.04355 2.58409 5.84605 2.69284 5.90105 2.76784Z" fill="#4B9EEC"/>
<path d="M0.692383 5.87238C1.43738 3.34113 3.55863 0.904883 7.05988 0.593633L7.07738 0.761133C7.07738 0.761133 7.39863 0.847383 7.55488 0.856133C7.71113 0.864883 7.87613 0.873633 7.92738 0.856133C7.97988 0.838633 8.20488 0.567383 8.20488 0.567383C9.10238 0.604883 9.91488 0.772383 10.6449 1.04113C10.6449 1.04113 10.6724 1.33863 10.6311 1.39988C10.5899 1.46113 10.5974 1.70738 10.6174 1.80363C10.6374 1.89988 10.7136 2.23488 10.6861 2.43988C10.6586 2.64488 10.6999 2.94613 10.5561 2.91863C10.4124 2.89113 10.2824 2.37113 10.1861 2.26863C10.0899 2.16613 10.2274 1.91238 10.1586 1.76238C10.0899 1.61238 10.0486 1.54363 9.89238 1.60488C9.73613 1.66613 9.69363 1.97488 9.53613 2.03613C9.37863 2.09738 9.23488 1.96113 9.14613 1.96113C9.05738 1.96113 8.70863 2.11863 8.63988 2.32363C8.57113 2.52863 8.59863 2.68613 8.78363 2.70738C8.96863 2.72738 8.94738 2.62488 9.04988 2.65238C9.15238 2.67988 9.17988 2.93238 9.22113 3.02238C9.26238 3.11113 9.33738 3.20738 9.34488 3.38488C9.35113 3.56238 9.26988 3.85738 9.18113 3.95988C9.09238 4.06238 9.04488 4.33613 8.91488 4.41113C8.78488 4.48613 8.62113 4.44488 8.50488 4.48613C8.38863 4.52738 8.42988 4.69113 8.31988 4.77988C8.20988 4.86863 8.10113 4.90363 8.10113 4.90363C8.10113 4.90363 8.36113 5.16988 8.35488 5.36238C8.34863 5.55363 8.36113 5.67738 8.12863 5.77988C7.89613 5.88238 7.93738 5.74613 7.94363 5.56113C7.94988 5.37613 7.93738 5.28113 7.93738 5.28113C7.93738 5.28113 7.77988 5.23363 7.74613 5.19863C7.71238 5.16488 7.69863 5.11613 7.69863 5.11613C7.69863 5.11613 7.49363 5.07488 7.45238 5.06863C7.41113 5.06238 7.34238 5.08863 7.30863 5.02113C7.27488 4.95238 7.36988 4.84363 7.32238 4.81613C7.27488 4.78863 7.00113 4.97988 6.94613 5.06988C6.89113 5.15863 6.99363 5.24113 7.03488 5.28863C7.07613 5.33613 7.20613 5.28863 7.21238 5.34988C7.21863 5.41113 7.18488 5.54113 7.14363 5.58238C7.10238 5.62363 7.04113 5.69238 7.04738 5.73988C7.05363 5.78738 7.28738 5.96613 7.31363 6.02738C7.33988 6.08863 7.44988 6.07488 7.45738 6.25363C7.46363 6.43113 7.40988 6.55488 7.33363 6.64363C7.25863 6.73238 7.17613 6.82113 7.15613 6.83488C7.13613 6.84863 6.99863 7.08113 6.89613 7.16363C6.79363 7.24613 6.56738 7.42988 6.39613 7.48488C6.22488 7.53988 5.92863 7.50863 5.78613 7.60738C5.64363 7.70613 5.66488 7.87613 5.56613 7.95738C5.46738 8.03863 5.40863 8.06488 5.34113 7.97988C5.27363 7.89488 5.29613 7.79988 5.33613 7.76488C5.37613 7.72863 5.45238 7.68863 5.37238 7.63488C5.29113 7.58113 5.22863 7.63488 5.14363 7.69363C5.05863 7.75238 4.93238 7.81988 4.97738 7.95363C5.02238 8.08863 5.22363 8.24988 5.29113 8.34863C5.35863 8.44738 5.39863 8.52863 5.39488 8.62738C5.38988 8.72613 5.41738 8.74863 5.32363 8.82488C5.22988 8.90113 5.21613 8.87863 5.05863 8.96363C4.90113 9.04863 4.78988 9.16113 4.70363 9.11113C4.61738 9.06113 4.59988 8.97613 4.59988 8.97613C4.59988 8.97613 4.37113 8.70238 4.30863 8.65238C4.24613 8.60363 4.08363 8.56738 4.06613 8.60738C4.04863 8.64738 4.05238 8.82738 4.07113 8.90863C4.08863 8.98988 4.11613 9.11988 4.11613 9.16488C4.11613 9.20988 4.25988 9.31738 4.34113 9.36238C4.42238 9.40738 4.49363 9.39363 4.54363 9.46988C4.59238 9.54613 4.67363 9.70738 4.71363 9.81113C4.75363 9.91488 4.88863 10.0761 4.88863 10.0761C4.88863 10.0761 5.18488 10.3449 5.21238 10.4124C5.23988 10.4799 5.36988 10.5386 5.33863 10.6411C5.30738 10.7449 5.26238 10.8211 5.13613 10.8111C5.00988 10.8024 4.81238 10.6761 4.74988 10.6411C4.68738 10.6049 4.53488 10.5424 4.53488 10.5424C4.53488 10.5424 4.17113 10.1699 4.12613 10.1161C4.08113 10.0624 3.85238 9.89113 3.81238 9.81988C3.77238 9.74863 3.57488 9.58238 3.54363 9.52863C3.51238 9.47488 3.54863 9.40238 3.61113 9.42113C3.67363 9.43863 3.93488 9.66363 3.99238 9.70863C4.05113 9.75363 4.22988 9.81613 4.22988 9.81613C4.22988 9.81613 4.07238 9.55988 4.01488 9.48863C3.95613 9.41738 3.83113 9.30863 3.79988 9.07988C3.76863 8.85113 3.75113 8.64488 3.73738 8.59488C3.72363 8.54488 3.61113 8.26738 3.57613 8.22238C3.54113 8.17738 3.38363 8.25863 3.32488 8.17363C3.26613 8.08863 3.30238 7.70738 3.30238 7.70738C3.30238 7.70738 3.02363 7.19113 2.96113 7.17363C2.89863 7.15613 2.69238 7.12863 2.61113 7.17363C2.52988 7.21863 2.26113 7.45613 2.22113 7.49238C2.18113 7.52863 1.93863 7.73488 1.88863 7.75738C1.83988 7.77988 1.76738 7.81613 1.76738 7.81613C1.76738 7.81613 1.70863 8.11238 1.68613 8.14363C1.66363 8.17488 1.64613 8.40363 1.61488 8.48488C1.58363 8.56613 1.53863 8.71363 1.43488 8.70988C1.33113 8.70488 1.34113 8.63363 1.30863 8.41863C1.27738 8.20363 1.17363 7.91988 1.15113 7.69613C1.12863 7.47113 1.09238 6.85238 1.07488 6.81613C1.05738 6.77988 0.944883 6.82488 0.939883 6.71738C0.934883 6.60988 0.991133 6.22988 0.944883 6.12488C0.886133 5.99113 0.692383 5.87238 0.692383 5.87238Z" fill="#7ADD8A"/>
<path d="M0.692383 5.8725C1.43738 3.34125 3.55863 0.905 7.05988 0.59375C7.05988 0.59375 7.51863 1.56875 7.55988 1.60625C7.80113 1.825 8.71113 2.11875 8.64238 2.32375C8.57363 2.52875 8.60113 2.68625 8.78613 2.7075C8.97113 2.7275 8.94988 2.625 9.05238 2.6525C9.15488 2.68 9.18238 2.9325 9.22363 3.0225C9.26488 3.11125 9.33988 3.2075 9.34738 3.385C9.35363 3.5625 9.27238 3.8575 9.18363 3.96C9.09488 4.0625 9.04738 4.33625 8.91738 4.41125C8.78738 4.48625 8.62363 4.445 8.50738 4.48625C8.39113 4.5275 8.43238 4.69125 8.32238 4.78C8.21238 4.86875 8.10363 4.90375 8.10363 4.90375C8.10363 4.90375 8.36363 5.17 8.35738 5.3625C8.35113 5.55375 8.36363 5.6775 8.13113 5.78C7.89863 5.8825 7.93988 5.74625 7.94613 5.56125C7.95238 5.37625 7.93988 5.28125 7.93988 5.28125C7.93988 5.28125 7.78238 5.23375 7.74863 5.19875C7.71488 5.165 7.70113 5.11625 7.70113 5.11625C7.70113 5.11625 7.49613 5.075 7.45488 5.06875C7.41363 5.0625 7.34488 5.08875 7.31113 5.02125C7.27738 4.9525 7.37238 4.84375 7.32488 4.81625C7.27738 4.78875 7.00363 4.98 6.94863 5.07C6.89363 5.15875 6.99613 5.24125 7.03738 5.28875C7.07863 5.33625 7.20863 5.28875 7.21488 5.35C7.22113 5.41125 7.18738 5.54125 7.14613 5.5825C7.10488 5.62375 7.04363 5.6925 7.04988 5.74C7.05613 5.7875 7.28988 5.96625 7.31613 6.0275C7.34238 6.08875 7.45238 6.075 7.45988 6.25375C7.46613 6.43125 7.41238 6.555 7.33613 6.64375C7.26113 6.7325 7.17863 6.82125 7.15863 6.835C7.13863 6.84875 7.00113 7.08125 6.89863 7.16375C6.79613 7.24625 6.56988 7.43 6.39863 7.485C6.22738 7.54 5.93113 7.50875 5.78863 7.6075C5.64613 7.70625 5.66738 7.87625 5.56863 7.9575C5.46988 8.03875 5.41113 8.065 5.34363 7.98C5.27613 7.895 5.29863 7.8 5.33863 7.765C5.37863 7.72875 5.45488 7.68875 5.37488 7.635C5.29363 7.58125 5.23113 7.635 5.14613 7.69375C5.06113 7.7525 4.93488 7.82 4.97988 7.95375C5.02488 8.08875 5.22613 8.25 5.29363 8.34875C5.36113 8.4475 5.40113 8.52875 5.39738 8.6275C5.39238 8.72625 5.41988 8.74875 5.32613 8.825C5.23238 8.90125 5.21863 8.87875 5.06113 8.96375C4.90363 9.04875 4.79238 9.16125 4.70613 9.11125C4.61988 9.06125 4.60238 8.97625 4.60238 8.97625C4.60238 8.97625 4.37363 8.7025 4.31113 8.6525C4.24863 8.60375 4.08613 8.5675 4.06863 8.6075C4.05113 8.6475 4.05488 8.8275 4.07363 8.90875C4.09113 8.99 4.11863 9.12 4.11863 9.165C4.11863 9.21 4.26238 9.3175 4.34363 9.3625C4.42488 9.4075 4.49613 9.39375 4.54613 9.47C4.59488 9.54625 4.67613 9.7075 4.71613 9.81125C4.75613 9.915 4.89113 10.0763 4.89113 10.0763C4.89113 10.0763 5.18738 10.345 5.21488 10.4125C5.24238 10.48 5.37238 10.5387 5.34113 10.6412C5.30988 10.745 5.26488 10.8212 5.13863 10.8112C5.01238 10.8025 4.81488 10.6762 4.75238 10.6412C4.68988 10.605 4.53738 10.5425 4.53738 10.5425C4.53738 10.5425 4.17363 10.17 4.12863 10.1163C4.08363 10.0625 3.85488 9.89125 3.81488 9.82C3.77488 9.74875 3.57738 9.5825 3.54613 9.52875C3.51488 9.475 3.55113 9.4025 3.61363 9.42125C3.67613 9.43875 3.93738 9.66375 3.99488 9.70875C4.05363 9.75375 4.23238 9.81625 4.23238 9.81625C4.23238 9.81625 4.07488 9.56 4.01738 9.48875C3.95863 9.4175 3.83363 9.30875 3.80238 9.08C3.77113 8.85125 3.75363 8.645 3.73988 8.595C3.72613 8.545 3.61363 8.2675 3.57863 8.2225C3.54363 8.1775 3.38613 8.25875 3.32738 8.17375C3.26863 8.08875 3.30488 7.7075 3.30488 7.7075C3.30488 7.7075 3.02613 7.19125 2.96363 7.17375C2.90113 7.15625 2.69488 7.12875 2.61363 7.17375C2.53238 7.21875 2.26363 7.45625 2.22363 7.4925C2.18363 7.52875 1.94113 7.735 1.89113 7.7575C1.84238 7.78 1.76988 7.81625 1.76988 7.81625C1.76988 7.81625 1.71113 8.1125 1.68863 8.14375C1.66613 8.175 1.64863 8.40375 1.61738 8.485C1.58613 8.56625 1.54113 8.71375 1.43738 8.71C1.33363 8.705 1.34363 8.63375 1.31113 8.41875C1.27988 8.20375 1.17613 7.92 1.15363 7.69625C1.13113 7.47125 1.09488 6.8525 1.07738 6.81625C1.05988 6.78 0.947383 6.825 0.942383 6.7175C0.937383 6.61 0.993633 6.23 0.947383 6.125C0.886133 5.99125 0.692383 5.8725 0.692383 5.8725Z" fill="url(#paint1_radial_358_9937)"/>
<path d="M6.25585 2.49998C6.17585 2.48498 6.11585 2.64998 5.98835 2.73998C5.8596 2.82998 5.72585 2.83998 5.72085 2.90123C5.71585 2.96248 5.84335 3.17498 5.9546 3.17998C6.06585 3.18498 6.2321 3.08873 6.3171 2.99623C6.4346 2.86873 6.4621 2.53998 6.25585 2.49998Z" fill="#159FF7"/>
<path d="M9.37835 2.7487C9.3471 2.75995 9.3121 2.82495 9.3096 2.8712C9.3071 2.95745 9.4671 3.18995 9.47335 3.24245C9.4796 3.29495 9.5021 3.5187 9.5096 3.60245C9.51835 3.7037 9.5271 3.7887 9.5721 3.7962C9.64585 3.8087 9.7421 3.66495 9.7621 3.5937C9.78335 3.52245 9.8271 3.2512 9.8071 3.19495C9.78585 3.1387 9.7621 3.0537 9.6846 2.9687C9.5921 2.8687 9.4446 2.72495 9.37835 2.7487Z" fill="#7ADD8A"/>
<path d="M9.6414 3.93916C9.5739 3.95666 9.56765 4.05791 9.5489 4.24291C9.5314 4.42666 9.5514 4.72166 9.5514 4.80791C9.5514 4.89416 9.54265 4.95416 9.54265 4.95416C9.54265 4.95416 9.4714 5.15916 9.46515 5.18916C9.4589 5.21916 9.2989 5.36166 9.24765 5.41166C9.19765 5.46166 9.05765 5.57791 9.05765 5.57791C9.05765 5.57791 8.8739 5.54791 8.79265 5.57166C8.4889 5.66041 8.4739 5.81291 8.4739 5.81291C8.4739 5.81291 8.38765 5.88041 8.3764 5.95291C8.35515 6.07791 8.48015 6.18166 8.5989 6.16666C8.7214 6.15166 8.87515 6.05041 8.96515 6.03291C9.0539 6.01541 9.2064 5.97041 9.32765 5.84916C9.4489 5.72791 9.59265 5.52541 9.6314 5.49791C9.67015 5.47041 9.78015 5.43791 9.79515 5.23291C9.81015 5.02791 9.8639 4.56041 9.85515 4.53166C9.8464 4.50166 10.0427 4.40666 10.0489 4.35916C10.0552 4.31166 10.0939 4.17166 10.0489 4.16291C10.0039 4.15416 9.87265 4.13291 9.82265 4.10666C9.71265 4.04666 9.71265 3.92166 9.6414 3.93916Z" fill="#7ADD8A"/>
<path d="M6.90214 7.76917C6.87214 7.77417 6.87589 7.97417 6.87839 8.08167C6.87839 8.10417 6.82464 8.17042 6.89339 8.34292C6.94714 8.47792 7.05339 8.56042 7.05339 8.56042C7.05339 8.56042 7.01464 8.96167 7.11839 9.09292C7.14964 9.13292 7.30589 9.09292 7.35339 9.13417C7.40089 9.17542 7.45214 9.22542 7.51339 9.24667C7.57339 9.26792 7.75464 9.27042 7.78089 9.22292C7.80714 9.17542 7.72464 9.04792 7.72089 9.02042C7.71839 8.99417 7.78089 8.92792 7.75964 8.85667C7.73839 8.78542 7.40339 8.34542 7.34339 8.32792C7.28339 8.31042 7.24839 8.35167 7.18339 8.27792C7.13839 8.22792 7.09964 8.14167 7.10589 8.01042C7.11339 7.87917 7.05339 7.74167 6.90214 7.76917Z" fill="#7ADD8A"/>
<path d="M6.36092 8.63381C6.29717 8.69881 6.22092 8.98756 6.20342 9.02631C6.18592 9.06506 5.99842 9.24631 5.92342 9.29631C5.85342 9.34381 5.69092 9.50506 5.67342 9.54881C5.65592 9.59381 5.50717 9.54256 5.42342 9.55506C5.35217 9.56506 5.22092 9.68006 5.20092 9.73006C5.17967 9.78006 5.22217 9.87006 5.27217 9.95881C5.32217 10.0476 5.43217 10.1401 5.46842 10.1788C5.50467 10.2176 5.61467 10.3051 5.64717 10.3251C5.71592 10.3663 5.87967 10.2838 5.99842 10.3163C6.11717 10.3488 6.22467 10.4076 6.25967 10.3901C6.36342 10.3401 6.43467 10.1013 6.50092 9.93756C6.59592 9.69881 6.61092 9.64631 6.61092 9.64631C6.61092 9.64631 6.68467 9.59256 6.72342 9.50381C6.76217 9.41506 6.72967 9.28381 6.75967 9.09381C6.78967 8.90381 6.82342 8.83256 6.84592 8.73131C6.86717 8.63881 6.86967 8.56506 6.81967 8.54131C6.76967 8.51756 6.50342 8.48756 6.36092 8.63381Z" fill="#7ADD8A"/>
<path d="M6.75031 10.3505C6.73531 10.3267 6.67031 10.238 6.69031 10.0467C6.71156 9.85674 6.77406 9.73424 6.77906 9.71049C6.78531 9.68674 7.01406 9.53174 7.09781 9.53174C7.18156 9.53174 7.24031 9.57049 7.24906 9.58549C7.25781 9.60049 7.28531 9.62674 7.32906 9.61799C7.37406 9.60924 7.40906 9.52549 7.40031 9.49549C7.39156 9.46549 7.40906 9.41174 7.44781 9.40924C7.48656 9.40674 7.49281 9.48924 7.48906 9.56674C7.48656 9.64424 7.47656 9.66799 7.41156 9.69799C7.34656 9.72799 7.15281 9.76924 7.10281 9.84049C7.05281 9.91174 7.08531 10.0755 7.08531 10.1017C7.08531 10.128 7.20156 10.1905 7.21031 10.2567C7.22031 10.3292 7.18906 10.3855 6.96656 10.393C6.80781 10.4005 6.75031 10.3505 6.75031 10.3505Z" fill="#7ADD8A"/>
<path d="M7.82969 9.6538C7.82969 9.6538 7.69344 9.7038 7.66969 9.72255C7.64594 9.74005 7.65094 9.80755 7.67594 9.83255C7.71219 9.8688 7.86344 9.83505 7.94094 9.84505C8.00844 9.85255 8.07719 9.8688 8.16094 9.8688C8.23469 9.8688 8.27095 9.75255 8.2472 9.72005C8.22345 9.68755 8.09595 9.45005 8.1222 9.40505C8.14845 9.36005 8.19344 9.28255 8.19094 9.24755C8.18594 9.18755 8.03094 9.19755 7.98219 9.2238C7.93469 9.25005 7.88469 9.36005 7.84844 9.4138C7.81219 9.4663 7.82969 9.6538 7.82969 9.6538Z" fill="#7ADD8A"/>
<path d="M5.48961 10.6439C5.46836 10.6539 5.38836 10.7952 5.42961 10.8527C5.47086 10.9089 5.51586 10.9027 5.89336 10.9089C6.27086 10.9152 6.36711 10.8989 6.38961 10.8877C6.41961 10.8727 6.69336 10.8639 6.81211 10.7864C6.93086 10.7089 7.09461 10.6764 7.14461 10.6739C7.19461 10.6714 7.29336 10.6764 7.32586 10.6527C7.35836 10.6289 7.46586 10.5902 7.44211 10.5064C7.41836 10.4227 7.35586 10.5064 7.03461 10.5214C6.76336 10.5339 6.26211 10.6502 6.18711 10.6527C6.08961 10.6564 5.52836 10.6264 5.48961 10.6439Z" fill="#7ADD8A"/>
<path d="M7.74166 10.2873C7.63166 10.3848 7.56916 10.4423 7.61666 10.501C7.65166 10.5448 7.76541 10.4648 7.83416 10.406C7.90291 10.346 8.03791 10.2685 7.98041 10.201C7.92541 10.1385 7.82291 10.2135 7.74166 10.2873Z" fill="#7ADD8A"/>
<path d="M8.4334 9.31783C8.41965 9.33783 8.43965 9.44033 8.4484 9.46658C8.45715 9.49283 8.57965 9.53533 8.6509 9.61783C8.72215 9.70158 8.72215 9.78783 8.7434 9.80158C8.76465 9.81658 9.08215 9.80408 9.1484 9.79283C9.21465 9.78158 9.3234 9.77533 9.4609 9.77158C9.59715 9.76908 9.7984 9.77908 9.83215 9.78658C9.88215 9.79908 9.94465 9.83158 9.9634 9.88408C9.97465 9.91908 9.9909 9.98408 9.9609 10.0178C9.9309 10.0516 9.87215 10.0441 9.8659 10.1041C9.85965 10.1641 9.85965 10.2166 9.9434 10.2116C10.0272 10.2053 10.2947 10.2203 10.3597 10.2178C10.4247 10.2153 10.5684 10.2778 10.6397 10.2416C10.7109 10.2053 10.9047 10.1578 10.9072 10.0953C10.9097 10.0328 10.8597 10.0178 10.8859 9.95533C10.9172 9.88158 10.9897 9.89533 11.0672 9.93408C11.1447 9.97283 11.3609 10.1428 11.4209 10.1478C11.4809 10.1528 11.6197 10.1216 11.6259 10.0703C11.6322 10.0203 11.5634 9.97533 11.5222 9.97533C11.4809 9.97533 11.4034 9.95158 11.3797 9.93408C11.3559 9.91658 11.1747 9.68158 11.1447 9.64908C11.1147 9.61658 11.1297 9.48908 11.1209 9.46783C11.1122 9.44658 10.9572 9.43783 10.9334 9.41408C10.9097 9.39033 10.6097 9.14658 10.4997 9.11408C10.3897 9.08158 9.5484 9.12033 9.5059 9.14033C9.46465 9.16158 9.23215 9.52408 9.1434 9.51158C9.05465 9.49908 9.07465 9.25033 8.96215 9.19033C8.84965 9.13033 8.4659 9.27033 8.4334 9.31783Z" fill="#7ADD8A"/>
<path d="M10.1171 14.3023C10.0834 14.3111 9.95586 14.2748 9.91961 14.3161C9.88336 14.3561 9.85211 14.4773 9.86086 14.5361C9.86961 14.5948 9.93336 14.7111 10.0271 14.7198C10.1584 14.7323 10.3509 14.5261 10.3459 14.4323C10.3421 14.3386 10.2246 14.2748 10.1171 14.3023Z" fill="#7ADD8A"/>
<path d="M11.6538 14.1501C11.5863 14.1789 11.5326 13.9664 11.4513 13.9701C11.3926 13.9739 11.2151 14.1164 11.0651 14.2214C10.9101 14.3301 10.8176 14.3601 10.7913 14.4726C10.7838 14.5039 10.8051 14.5939 10.9488 14.6114C11.0926 14.6289 11.6138 14.3276 11.7126 14.2614C11.8113 14.1951 12.1801 13.9651 12.1938 13.8789C12.2076 13.7939 12.0863 13.5826 12.0776 13.5239C12.0688 13.4651 12.0276 13.3176 11.9788 13.3214C11.9288 13.3264 11.8913 13.3801 11.9026 13.5014C11.9076 13.5614 11.8988 13.6464 11.8963 13.6701C11.8851 13.7539 11.8513 13.7676 11.8188 13.7864C11.7776 13.8101 11.7226 13.8251 11.6963 13.9064C11.6601 14.0101 11.7401 14.1139 11.6538 14.1501Z" fill="#7ADD8A"/>
<path d="M9.6899 10.9335C9.68365 11.0223 9.81115 11.1335 9.86115 11.1798C9.9499 11.2623 10.0736 11.3648 10.1974 11.371C10.3211 11.3773 10.4436 11.3235 10.4711 11.261C10.4986 11.1998 10.6561 10.8848 10.6561 10.8023C10.6561 10.7198 10.7111 10.5148 10.7174 10.4598C10.7236 10.4048 10.7649 10.3848 10.8336 10.3848C10.9024 10.3848 10.9224 10.426 10.9636 10.501C11.0049 10.576 11.0461 10.706 11.0936 10.7885C11.1411 10.871 11.2374 11.0423 11.2374 11.0423C11.2374 11.0423 11.2174 11.261 11.2374 11.371C11.2574 11.481 11.5524 11.8098 11.5524 11.9123C11.5524 12.0148 11.5249 12.0835 11.5724 12.1523C11.6199 12.221 11.7236 12.2623 11.7374 12.3035C11.7511 12.3448 11.7924 12.5085 11.7711 12.5985C11.7511 12.6873 11.6824 12.941 11.5249 13.0985C11.3674 13.256 11.1274 13.4473 11.1274 13.4473C11.1274 13.4473 10.8711 13.7985 10.7611 13.8873C10.6511 13.976 10.5649 14.0398 10.5111 14.0635C10.4674 14.0823 10.3336 14.2073 9.9774 14.1935C9.62115 14.1798 9.5324 14.0423 9.4699 13.9948C9.40865 13.9473 9.27115 13.9573 9.2374 13.906C9.1824 13.8235 9.2374 13.7685 9.22365 13.6798C9.21615 13.6348 9.1624 13.5223 8.98365 13.4948C8.8049 13.4673 8.3049 13.5285 8.1824 13.5635C8.05865 13.5973 7.95365 13.731 7.8399 13.7148C7.69615 13.6948 7.5524 13.7698 7.32615 13.756C7.09365 13.7423 6.93615 13.5985 7.01115 13.5373C7.0449 13.5098 7.1074 13.4548 7.0724 13.366C7.03865 13.2773 6.7774 12.7635 6.7024 12.606C6.6274 12.4485 6.53115 12.2785 6.5374 12.1398C6.5574 11.7285 6.73615 11.7423 6.7774 11.7223C6.81865 11.7023 6.86615 11.7285 6.9349 11.6885C7.00365 11.6473 7.2774 11.5448 7.31865 11.4835C7.3599 11.4223 7.36615 11.2573 7.4149 11.216C7.4624 11.1748 7.8949 10.7985 7.98365 10.7435C8.0724 10.6885 8.1549 10.7098 8.1824 10.7635C8.2099 10.8173 8.3124 10.8735 8.40865 10.8523C8.6099 10.8098 8.5599 10.571 8.6549 10.5098C8.75115 10.4485 9.0799 10.386 9.35365 10.421C9.6274 10.456 9.7574 10.4548 9.7924 10.5985C9.8274 10.7423 9.6899 10.9335 9.6899 10.9335Z" fill="#7ADD8A"/>
<path d="M10.891 13.2013C10.891 13.2013 11.751 12.6875 11.7722 12.5975C11.7922 12.5088 11.7522 12.3438 11.7385 12.3025C11.7247 12.2613 11.6222 12.22 11.5735 12.1513C11.526 12.0825 11.5535 12.0138 11.5535 11.9113C11.5535 11.8088 11.2585 11.48 11.2385 11.37C11.2185 11.26 11.2385 11.0413 11.2385 11.0413C11.2385 11.0413 11.1422 10.87 11.0947 10.7875C11.0472 10.705 11.006 10.575 10.9647 10.5C10.9235 10.425 10.9035 10.3838 10.8347 10.3838C10.766 10.3838 10.7247 10.4038 10.7185 10.4588C10.7122 10.5138 10.6572 10.7188 10.6572 10.8013C10.6572 10.8838 10.4997 11.1988 10.4722 11.26C10.4447 11.3213 10.321 11.3763 10.1985 11.37C10.0747 11.3638 9.95225 11.26 9.86225 11.1788C9.81225 11.1325 9.68475 11.0213 9.691 10.9325C9.691 10.9325 9.8285 10.7413 9.7935 10.5963C9.7585 10.4513 9.6285 10.4525 9.35475 10.4188C9.081 10.385 8.75225 10.4463 8.656 10.5075C8.55975 10.5688 8.60975 10.8075 8.40975 10.85C8.3135 10.87 8.211 10.8163 8.1835 10.7613C8.156 10.7063 8.0735 10.6863 7.98475 10.7413C7.896 10.7963 7.4635 11.1725 7.416 11.2138C7.3685 11.255 7.361 11.4188 7.31975 11.4813C7.2785 11.5438 7.00475 11.6463 6.936 11.6863C6.86725 11.7275 6.81975 11.7 6.7785 11.72C6.73725 11.74 6.55975 11.7263 6.5385 12.1375C6.531 12.2763 6.62725 12.4463 6.7035 12.6038C6.7785 12.7613 7.03975 13.275 7.0735 13.3638C7.10725 13.4525 7.046 13.5075 7.01225 13.535C6.93725 13.5963 7.09475 13.74 7.32725 13.7538C7.5535 13.7675 7.69725 13.6925 7.841 13.7125C7.95475 13.7288 8.05975 13.5963 8.1835 13.5613C8.30725 13.5275 8.80725 13.465 8.98475 13.4925C9.16225 13.52 9.21725 13.6325 9.22475 13.6775C9.2385 13.7663 10.071 13.5325 10.071 13.5325L10.891 13.2013Z" fill="url(#paint2_radial_358_9937)"/>
</g>
<defs>
<radialGradient id="paint0_radial_358_9937" cx="0" cy="0" r="1" gradientUnits="userSpaceOnUse" gradientTransform="translate(5.49596 3.63361) rotate(51.2641) scale(11.3683 8.47545)">
<stop offset="0.506" stop-color="#17A1F3"/>
<stop offset="0.767" stop-color="#1B7FFA"/>
<stop offset="0.962" stop-color="#1366F0"/>
<stop offset="1" stop-color="#1160EE"/>
</radialGradient>
<radialGradient id="paint1_radial_358_9937" cx="0" cy="0" r="1" gradientUnits="userSpaceOnUse" gradientTransform="translate(2.72659 4.19719) rotate(16.1532) scale(5.43788 3.28197)">
<stop stop-color="#E3DDA6"/>
<stop offset="1" stop-color="#E3DDA6" stop-opacity="0"/>
</radialGradient>
<radialGradient id="paint2_radial_358_9937" cx="0" cy="0" r="1" gradientUnits="userSpaceOnUse" gradientTransform="translate(8.06664 11.1198) rotate(86.1009) scale(2.39303 3.49996)">
<stop offset="0.611" stop-color="#E3DDA6"/>
<stop offset="0.966" stop-color="#E3DDA6" stop-opacity="0.087"/>
<stop offset="1" stop-color="#E3DDA6" stop-opacity="0"/>
</radialGradient>
<clipPath id="clip0_358_9937">
<rect width="16" height="16" fill="white"/>
</clipPath>
</defs>
</svg>
