<svg width="165" height="98" viewBox="0 0 165 98" fill="none" xmlns="http://www.w3.org/2000/svg">
<path fill-rule="evenodd" clip-rule="evenodd" d="M48.9225 31.4621L48.5504 36.8023C48.4526 38.2136 47.3389 39.3059 45.9993 39.3059H38.5538L34.6112 35.1996L34.331 35.3502L36.6477 39.3072H30.8099C27.2393 39.3072 24.4213 36.1031 24.6834 32.3413L24.7414 31.5157L24.7535 31.189L25.2523 31.3562C25.5084 31.4417 25.7754 31.4813 26.0435 31.4723L26.2923 31.4634H47.6022C47.8426 31.4634 48.0818 31.4251 48.3101 31.3485L48.9478 31.1367L48.9225 31.4634V31.4621Z" fill="white"/>
<path fill-rule="evenodd" clip-rule="evenodd" d="M39.8877 40.124L38.6738 57.5369C38.5808 58.8678 37.5323 59.8976 36.2688 59.8976H31.0652L32.1294 44.6093C32.3057 42.0802 34.2988 40.124 36.6989 40.124L34.3447 44.3937L34.6237 44.5544L38.6194 40.124H39.8877Z" fill="white"/>
<path d="M41.8179 58.0726V47.2607C42.5982 47.6499 43.184 47.8107 43.7264 47.8107C44.7241 47.8107 45.8293 47.3296 47.1955 47.3296C48.7355 47.3296 50.4049 47.8796 50.4049 49.689C50.4049 51.293 49.0822 52.4147 49.0822 52.4147C49.0822 50.262 47.088 49.9175 45.4609 50.3067V59.8361C45.4609 59.8361 41.8179 59.8361 41.8179 58.0726Z" fill="white"/>
<path d="M51.4666 47.4446C51.7697 47.4446 55.1096 47.5135 55.1096 49.2081V59.8363C55.1096 59.8363 51.4666 59.8363 51.4666 58.0728V47.4446ZM51.5318 43.2324H53.8739C54.525 43.2324 55.0021 43.7594 55.0021 44.1027V46.3013H52.6817C52.0101 46.3013 51.533 45.8662 51.533 45.454V43.2324H51.5318Z" fill="white"/>
<path d="M61.0512 65.3346C60.7263 65.3346 57.4082 65.3116 57.4082 63.3644V47.2607C58.0798 47.627 58.8178 47.8107 59.5981 47.8107C60.9425 47.8107 62.0913 47.3296 63.3499 47.3296C66.1692 47.3296 68.0112 49.0702 68.0112 51.5904V55.7132C68.0112 58.37 65.7995 59.951 63.2847 59.951C61.9838 59.951 60.8991 59.2415 60.8991 59.2415C60.8991 59.2415 61.0512 59.9969 61.0512 60.455V65.3346ZM61.0512 55.5997C61.0512 56.5848 62.0272 57.2713 63.0032 57.2713C63.8053 57.2713 64.3694 56.6983 64.3694 55.37V51.9336C64.3694 50.6742 63.914 49.9634 62.4391 49.9634C61.6806 49.9634 61.0512 50.1242 61.0512 50.1242V55.5984V55.5997Z" fill="white"/>
<path d="M77.3037 51.7276C77.3037 50.6506 76.8918 50.0789 75.6561 50.0789C74.8976 50.0789 73.9868 50.2856 73.9868 50.2856V59.8381C73.9868 59.8381 70.3438 59.8381 70.3438 58.0746V47.2627C70.3438 47.2627 71.298 47.8127 72.7294 47.8127C73.7923 47.8127 74.8106 47.3316 75.9605 47.3316C78.3884 47.3316 80.948 48.2019 80.948 51.3856V59.8381C80.948 59.8381 77.3049 59.7921 77.3049 58.0746V51.7288L77.3037 51.7276Z" fill="white"/>
<path d="M94.1176 55.6448C94.1176 58.3474 92.3178 59.9514 88.5021 59.9514C84.6863 59.9514 82.843 58.3474 82.843 55.6448V51.6367C82.843 48.957 84.6428 47.3301 88.5021 47.3301C92.3613 47.3301 94.1176 48.957 94.1176 51.6367V55.6448ZM90.4746 51.98C90.4746 50.7205 90.1279 50.0327 88.5008 50.0327C86.8738 50.0327 86.4836 50.7205 86.4836 51.98V55.3015C86.4836 56.561 86.8303 57.2717 88.5008 57.2717C90.1714 57.2717 90.4746 56.5622 90.4746 55.3015V51.98Z" fill="white"/>
<path d="M103.159 51.7276C103.159 50.7884 102.747 50.0789 101.511 50.0789C100.753 50.0789 99.8418 50.2627 99.8418 50.2627V59.8381C99.8418 59.8381 96.1987 59.8381 96.1987 58.0746V47.2627C96.1987 47.2627 97.0443 47.7897 98.7136 47.7897C99.7331 47.7897 100.709 47.3316 101.814 47.3316C103.917 47.3316 105.283 48.2708 105.283 48.2708C105.283 48.2708 106.606 47.3316 109.013 47.3316C111.68 47.3316 113.762 48.8207 113.762 51.6382V59.8381C113.762 59.8381 110.119 59.7921 110.119 58.0746V52.0504C110.119 50.5613 109.404 50.0343 108.471 50.0343C107.647 50.0343 106.802 50.5383 106.802 51.4315V59.8381C106.802 59.8381 103.159 59.7462 103.159 58.0746V51.7288V51.7276Z" fill="white"/>
<path d="M116.926 52.7609C116.123 51.6393 115.929 50.8149 115.927 50.1042C115.927 47.7907 119.005 47.3314 120.502 47.3301C124.036 47.3288 125.901 48.7707 125.902 51.4274L125.906 59.9489C125.298 59.6056 124.649 59.5367 124.041 59.538C122.892 59.538 121.677 59.9514 120.398 59.9514C117.97 59.9514 115.628 59.0837 115.627 56.1973C115.626 52.0055 121.263 52.7813 122.259 51.2463C122.259 50.6963 121.869 50.0557 120.46 50.0557C118.79 50.0557 116.925 50.584 116.926 52.7609ZM122.326 53.9948C121.741 54.957 119.269 54.592 119.27 56.0582C119.27 57.1352 120.008 57.3636 120.745 57.3636C121.525 57.3636 122.327 57.1109 122.327 57.1109V53.9961L122.326 53.9948Z" fill="white"/>
<path d="M136.575 45.1825L135.897 47.5368C135.77 47.977 135.713 48.7235 135.713 48.7235C135.713 48.7235 134.893 47.718 133.669 47.325C131.222 46.5377 128.664 47.3901 127.938 49.9102L126.801 53.8558C126.05 56.4627 127.492 58.5312 130.709 59.5661C131.115 59.6962 131.679 59.7587 132.318 59.8557C132.316 59.843 132.316 59.8315 132.316 59.8187C132.316 58.3742 133.424 57.2041 134.791 57.2041C135.537 57.2041 136.207 57.5525 136.66 58.1024L140.06 46.3029L136.577 45.1838L136.575 45.1825ZM134.563 52.1625L133.042 57.4427C133.042 57.4427 132.256 57.3343 131.676 57.148C130.265 56.6937 130.025 55.8732 130.38 54.6482L131.327 51.3598C131.687 50.1119 132.406 49.7431 133.193 49.997C134.128 50.2982 134.836 51.2195 134.564 52.1625H134.563ZM137.248 42.8486L137.101 43.3603L138.21 43.7176C138.302 43.747 138.352 43.8478 138.325 43.9448L138.291 44.0634C138.263 44.1604 138.165 44.2153 138.075 44.1859L136.966 43.8286L136.938 43.9282L136.757 44.5573L140.228 45.6738C140.504 43.9167 137.589 42.9571 137.248 42.8486Z" fill="white"/>
<path d="M136.985 59.8899V59.8925C136.985 60.14 136.946 60.3786 136.876 60.6019C136.601 61.4748 135.832 62.1102 134.919 62.1396C134.897 62.1396 134.877 62.1396 134.855 62.1396C134.837 62.1396 134.82 62.1396 134.803 62.1396C133.885 62.1166 133.111 61.4786 132.834 60.6007C132.764 60.3774 132.726 60.1375 132.726 59.8886C132.726 59.6398 132.764 59.3999 132.834 59.1766C133.116 58.2821 133.915 57.6377 134.856 57.6377C135.797 57.6377 136.596 58.2821 136.878 59.1766C136.948 59.3999 136.987 59.6398 136.987 59.8886L136.985 59.8899Z" stroke="#F7723A" stroke-width="2.75789" stroke-miterlimit="10"/>
<path d="M134.858 62.1425C135.471 62.1425 135.968 61.1347 135.968 59.8916C135.968 58.6484 135.471 57.6406 134.858 57.6406C134.245 57.6406 133.748 58.6484 133.748 59.8916C133.748 61.1347 134.245 62.1425 134.858 62.1425Z" stroke="#F7723A" stroke-width="2.75789" stroke-miterlimit="10"/>
<path d="M136.984 59.8902V59.8927C136.984 60.1403 136.945 60.3789 136.875 60.6022C136.606 60.7642 136.247 60.8931 135.832 60.9735C135.531 61.0309 135.2 61.0628 134.853 61.0641C134.51 61.0641 134.183 61.0322 133.884 60.9761C133.465 60.897 133.103 60.7668 132.831 60.6035C132.761 60.3802 132.722 60.1403 132.722 59.8914C132.722 59.6426 132.761 59.4027 132.831 59.1794C133.103 59.0161 133.466 58.8859 133.886 58.8068C134.184 58.7507 134.51 58.7188 134.853 58.7188C135.199 58.7188 135.53 58.7506 135.829 58.8081C136.245 58.8872 136.605 59.0173 136.874 59.1794C136.944 59.4027 136.983 59.6426 136.983 59.8914L136.984 59.8902Z" stroke="#F7723A" stroke-width="2.75789" stroke-miterlimit="10"/>
<path d="M134.854 57.6406V62.1425" stroke="#F7723A" stroke-width="2.75789" stroke-miterlimit="10"/>
<path d="M132.724 59.8916H136.985" stroke="#F7723A" stroke-width="2.75789" stroke-miterlimit="10"/>
</svg>
