<svg width="64" height="64" viewBox="0 0 64 64" fill="none" xmlns="http://www.w3.org/2000/svg">
<rect width="64" height="64" rx="12" fill="#F1FBFC"/>
<path d="M42.1214 17.6969C42.1214 19.1099 40.9741 20.2588 39.5595 20.2588H24.4419C23.0273 20.2588 21.88 19.1115 21.88 17.6969C21.88 16.2824 23.0273 15.135 24.4419 15.135H26.7253C26.9295 13.9247 27.9755 13 29.2433 13H34.7557C36.0242 13 37.0702 13.9247 37.2745 15.135H39.5571C40.9733 15.1342 42.1214 16.2824 42.1214 17.6969ZM46.9436 21.5402V47.1576C46.9436 49.2798 45.2242 50.9992 43.102 50.9992H20.8986C18.7763 50.9992 17.0562 49.2798 17.0562 47.1576V21.5402C17.0562 19.6644 18.4021 18.1078 20.1797 17.7703C20.2196 20.0937 22.1089 21.967 24.4419 21.967H39.5595C41.8924 21.967 43.7809 20.0937 43.8216 17.7703C45.5976 18.107 46.9436 19.6644 46.9436 21.5402ZM42.9113 27.9709C41.9108 26.9704 40.2887 26.9696 39.2882 27.9701L29.8281 37.4294L24.7123 32.3167C23.7126 31.3162 22.0906 31.317 21.0893 32.3183C20.0896 33.3188 20.0904 34.9409 21.0909 35.9414L28.0178 42.8651C28.5181 43.3638 29.1723 43.6143 29.8289 43.6143C30.484 43.6143 31.1406 43.3638 31.6401 42.8635L42.9129 31.5939C43.9118 30.5918 43.9118 28.9706 42.9113 27.9709Z" fill="#064244"/>
</svg>
