<svg width="64" height="64" viewBox="0 0 64 64" fill="none" xmlns="http://www.w3.org/2000/svg">
<rect width="64" height="64" rx="12" fill="#F1FBFC"/>
<g clip-path="url(#clip0_23_28)">
<path d="M49.9562 44.9182L43.6244 38.5865C45.284 35.9995 46.25 32.9263 46.25 29.625C46.25 20.4433 38.8067 13 29.625 13C20.4433 13 13 20.4433 13 29.625C13 38.8067 20.4433 46.25 29.625 46.25C32.9263 46.25 35.9995 45.284 38.5865 43.6244L44.9182 49.9562C46.31 51.3479 48.565 51.3479 49.9562 49.9562C51.3473 48.5644 51.3479 46.31 49.9562 44.9182ZM29.625 45.0625C21.0993 45.0625 14.1875 38.1507 14.1875 29.625C14.1875 21.0993 21.0993 14.1875 29.625 14.1875C38.1507 14.1875 45.0625 21.0993 45.0625 29.625C45.0625 38.1507 38.1507 45.0625 29.625 45.0625Z" fill="#064244"/>
<path d="M29.625 15.375C21.7548 15.375 15.375 21.7548 15.375 29.625C15.375 37.4952 21.7548 43.875 29.625 43.875C37.4952 43.875 43.875 37.4952 43.875 29.625C43.875 21.7548 37.4952 15.375 29.625 15.375ZM39.125 30.2188C38.7967 30.2188 38.5312 29.9533 38.5312 29.625C38.5312 24.7064 34.5436 20.7188 29.625 20.7188C29.2967 20.7188 29.0312 20.4533 29.0312 20.125C29.0312 19.7967 29.2967 19.5312 29.625 19.5312C35.1997 19.5312 39.7188 24.0503 39.7188 29.625C39.7188 29.9533 39.4533 30.2188 39.125 30.2188Z" fill="#064244"/>
</g>
<defs>
<clipPath id="clip0_23_28">
<rect width="38" height="38" fill="white" transform="translate(13 13)"/>
</clipPath>
</defs>
</svg>
