<svg width="64" height="65" viewBox="0 0 64 65" fill="none" xmlns="http://www.w3.org/2000/svg">
<rect y="0.5" width="64" height="64" rx="12" fill="#F1FBFC"/>
<g clip-path="url(#clip0_31_329)">
<path d="M45.0749 13.5C42.005 13.5 39.5107 15.9918 39.5107 19.0692C39.5107 19.6701 39.6117 20.2457 39.7834 20.7859C40.0939 21.8816 42.9593 29.5816 44.1762 32.8534C43.5905 33.0756 43.1739 33.631 43.1739 34.2924C43.1739 35.1483 43.8682 35.8425 44.724 35.8425C45.5824 35.8425 46.2741 35.1483 46.2741 34.2924C46.2741 34.2647 46.2615 34.2394 46.2564 34.2117C46.2539 34.04 46.2186 33.8784 46.1605 33.732C46.1479 33.6916 46.1277 33.6638 46.1075 33.626C46.057 33.5225 45.9989 33.4265 45.9207 33.3457C45.7641 33.1513 45.5798 32.9822 45.3501 32.8812C46.673 29.8063 49.7151 22.7097 50.2882 21.0182C50.5129 20.4123 50.6441 19.7559 50.6441 19.0692C50.6492 15.9918 48.1549 13.5 45.0749 13.5ZM45.2239 22.6415C43.2648 22.6415 41.6743 21.051 41.6743 19.0894C41.6743 17.1278 43.2648 15.5399 45.2239 15.5399C47.188 15.5399 48.7785 17.1278 48.7785 19.0894C48.776 21.0485 47.188 22.6415 45.2239 22.6415Z" fill="#064244"/>
<path d="M45.2213 21.5886C46.6519 21.5886 47.8115 20.429 47.8115 18.9984C47.8115 17.5679 46.6519 16.4082 45.2213 16.4082C43.7908 16.4082 42.6311 17.5679 42.6311 18.9984C42.6311 20.429 43.7908 21.5886 45.2213 21.5886Z" fill="#064244"/>
<path d="M13.3535 25.3986C13.6539 25.3355 19.7281 24.0681 24.5046 27.4334V20.251L13.3535 21.4653V25.3986Z" fill="#064244"/>
<path d="M13.3535 49.0636L24.5046 47.8518V40.7021L13.3535 41.4545V49.0636Z" fill="#064244"/>
<path d="M13.3535 26.5903V39.9655L24.5046 39.2107V28.9912C20.031 25.2548 13.4242 26.5701 13.3535 26.5903Z" fill="#064244"/>
<path d="M26.1304 30.6572V39.3999L26.191 39.0893L37.2814 41.3917V36.5698C36.8598 36.5925 36.4483 36.6051 36.0722 36.6051C31.3739 36.6051 29.8264 34.9692 26.1304 30.6572Z" fill="#064244"/>
<path d="M26.1304 47.8518L37.2789 51.4998V42.9137L26.1304 40.5986V47.8518Z" fill="#064244"/>
<path d="M26.1304 28.8447C26.2818 29.0037 26.4434 29.1501 26.5924 29.3243L26.6732 29.4228C30.8816 34.3381 32.0076 35.6534 37.2814 35.3631V23.904L26.1304 20.251V28.8447Z" fill="#064244"/>
<path d="M38.675 51.5002L49.8337 49.0639V40.7354L38.675 42.9343V51.5002Z" fill="#064244"/>
<path d="M48.2558 34.2698C48.2558 36.1506 46.731 37.678 44.8401 37.678C43.4617 37.678 42.2726 36.855 41.7374 35.6684L38.8341 36.4611C38.7786 36.4687 38.7306 36.4712 38.675 36.4763V41.4194L49.8312 39.2154V33.4619L48.2205 33.9037C48.2331 34.0249 48.2558 34.1436 48.2558 34.2698Z" fill="#064244"/>
<path d="M47.8822 32.7402L49.6722 32.2555L49.8312 32.2328V26.6787C49.5762 27.0498 47.6475 32.3868 47.6475 32.3868C47.7257 32.5054 47.8166 32.614 47.8822 32.7402Z" fill="#064244"/>
<path d="M41.4318 34.2695C41.4318 33.5222 41.6944 32.8582 42.1008 32.3003C42.1008 32.3003 39.2581 25.7616 38.6775 24.7266V35.2541L41.4545 34.4967C41.447 34.4184 41.4318 34.3452 41.4318 34.2695Z" fill="#064244"/>
</g>
<defs>
<clipPath id="clip0_31_329">
<rect width="38" height="38" fill="white" transform="translate(13 13.5)"/>
</clipPath>
</defs>
</svg>
